<svg version="1.1" width="63" height="33" viewBox="-1 -1 63 33" xmlns="http://www.w3.org/2000/svg" xmlns:xlink="http://www.w3.org/1999/xlink">
  <!-- Exported by Scratch - http://scratch.mit.edu/ -->
  <g id="ID0.4416364748030901" transform="matrix(1.8423891067504883, 0, 0, 1.7318190336227417, -0.4, -0.05)">
    <path id="ID0.9403524622321129" fill="none" stroke="#1DD4FF" stroke-width="6" d="M 28.925 63.961 C 28.925 44.586 44.633 28.878 64.007 28.878 " transform="matrix(0.49772337079048157, 0, 0, 0.49772337079048157, -0.2, -0.65)"/>
    <path id="ID0.9403524622321129" fill="none" stroke="#1DD4FF" stroke-width="6" d="M 28.925 63.961 C 28.925 44.586 44.633 28.878 64.007 28.878 " transform="matrix(-0.49772337079048157, 0, 0, 0.49772337079048157, 62.9, -0.65)"/>
    <g id="ID0.18294116482138634">
      <path id="ID0.2513149478472769" fill="none" stroke="#A430FF" stroke-width="6" d="M 40.134 64 C 40.134 50.756 50.871 40.018 64.115 40.018 " transform="matrix(0.49772337079048157, 0, 0, 0.49772337079048157, -0.2, -0.65)"/>
      <path id="ID0.2513149478472769" fill="none" stroke="#A430FF" stroke-width="6" d="M 40.134 64 C 40.134 50.756 50.871 40.018 64.115 40.018 " transform="matrix(-0.49772337079048157, 0, 0, 0.49772337079048157, 62.9, -0.65)"/>
    </g>
    <g id="ID0.48375840252265334">
      <path id="ID0.3910572864115238" fill="none" stroke="#3131FF" stroke-width="6" d="M 34.322 64 C 34.322 47.545 47.661 34.206 64.115 34.206 " transform="matrix(0.49772337079048157, 0, 0, 0.49772337079048157, -0.2, -0.65)"/>
      <path id="ID0.3910572864115238" fill="none" stroke="#3131FF" stroke-width="6" d="M 34.322 64 C 34.322 47.545 47.661 34.206 64.115 34.206 " transform="matrix(-0.49772337079048157, 0, 0, 0.49772337079048157, 62.9, -0.65)"/>
    </g>
    <g id="ID0.6362090813927352">
      <path id="ID0.20220525283366442" fill="none" stroke="#00CC44" stroke-width="6" d="M 22.965 63.958 C 22.965 41.296 41.338 22.922 64 22.922 " transform="matrix(0.49772337079048157, 0, 0, 0.49772337079048157, -0.2, -0.65)"/>
      <path id="ID0.20220525283366442" fill="none" stroke="#00CC44" stroke-width="6" d="M 22.965 63.958 C 22.965 41.296 41.338 22.922 64 22.922 " transform="matrix(-0.49772337079048157, 0, 0, 0.49772337079048157, 62.9, -0.65)"/>
    </g>
    <g id="ID0.2237109406851232">
      <path id="ID0.1437523658387363" fill="none" stroke="#FFED12" stroke-width="6" d="M 17.381 63.958 C 17.381 38.212 38.255 17.338 64 17.338 " transform="matrix(0.49772337079048157, 0, 0, 0.49772337079048157, -0.2, -0.65)"/>
      <path id="ID0.1437523658387363" fill="none" stroke="#FFED12" stroke-width="6" d="M 17.381 63.958 C 17.381 38.212 38.255 17.338 64 17.338 " transform="matrix(-0.49772337079048157, 0, 0, 0.49772337079048157, 62.9, -0.65)"/>
    </g>
    <g id="ID0.628254437353462">
      <path id="ID0.09627014677971601" fill="none" stroke="#FF9F2C" stroke-width="6" d="M 11.548 63.958 C 11.548 34.989 35.032 11.505 64 11.505 " transform="matrix(0.49772337079048157, 0, 0, 0.49772337079048157, -0.2, -0.65)"/>
      <path id="ID0.09627014677971601" fill="none" stroke="#FF9F2C" stroke-width="6" d="M 11.548 63.958 C 11.548 34.989 35.032 11.505 64 11.505 " transform="matrix(-0.49772337079048157, 0, 0, 0.49772337079048157, 62.9, -0.65)"/>
    </g>
    <g id="ID0.7588445385918021">
      <path id="ID0.5399231510236859" fill="none" stroke="#FF2929" stroke-width="7" d="M 5.298 63.958 C 5.298 31.537 31.580 5.255 64 5.255 " transform="matrix(0.49772337079048157, 0, 0, 0.49772337079048157, -0.2, -0.65)"/>
      <path id="ID0.5399231510236859" fill="none" stroke="#FF2929" stroke-width="7" d="M 5.298 63.958 C 5.298 31.537 31.580 5.255 64 5.255 " transform="matrix(-0.49772337079048157, 0, 0, 0.49772337079048157, 62.9, -0.65)"/>
    </g>
  </g>
</svg>