<svg version="1.1" width="72" height="57" viewBox="-1 -1 72 57" xmlns="http://www.w3.org/2000/svg" xmlns:xlink="http://www.w3.org/1999/xlink">
  <!-- Exported by Scratch - http://scratch.mit.edu/ -->
  <g id="ID0.24512196658179164" transform="matrix(0.805084764957428, 0, 0, 0.805084764957428, 0, 0)">
    <path id="ID0.29084531450644135" fill="#272525" d="M 119.512 34.742 C 118.864 35.475 111.930 41.870 111.528 42.023 C 107.170 36.992 104.551 33.435 107.645 30.662 C 110.736 27.889 113.475 29.308 119.512 34.742 Z " transform="matrix(0.4965725243091583, 0, 0, 0.4965725243091583, -1.55, -10.75)"/>
    <path id="ID0.8032064409926534" fill="#53CC56" d="M 117.027 35.593 C 115.318 36.940 113.691 38.387 112.265 39.978 C 110.220 38.270 107.582 34.418 109.658 32.668 C 111.734 30.918 115.775 34.747 117.027 35.593 Z " transform="matrix(0.4965725243091583, 0, 0, 0.4965725243091583, -1.55, -10.75)"/>
    <path id="ID0.02263905992731452" fill="#272525" d="M 128.811 31.590 C 128.050 31.913 120.518 34.102 120.172 34.038 C 119.234 27.485 118.897 23.079 122.223 22.172 C 125.550 21.265 126.868 23.858 128.811 31.590 Z " transform="matrix(0.4965725243091583, 0, 0, 0.4965725243091583, -1.55, -10.75)"/>
    <path id="ID0.8064787443727255" fill="#53CC56" d="M 126.718 31.114 C 124.957 31.452 123.212 31.919 121.548 32.611 C 120.833 30.110 120.606 25.436 122.792 24.924 C 124.977 24.411 126.197 29.755 126.718 31.114 Z " transform="matrix(0.4965725243091583, 0, 0, 0.4965725243091583, -1.55, -10.75)"/>
    <path id="ID0.1744310068897903" fill="#272525" d="M 113.240 42.264 C 113.503 45.088 113.855 52.050 113.855 52.050 C 110.179 52.284 103.763 54.484 103.468 49.079 C 103.178 43.672 109.766 43.481 113.240 42.264 Z " transform="matrix(0.4965725243091583, 0, 0, 0.4965725243091583, -1.55, -10.75)"/>
    <path id="ID0.5474410676397383" fill="#53CC56" d="M 112.484 45.082 C 112.679 46.413 112.929 48.142 112.882 49.696 C 110.913 50.319 106.439 51.466 106.336 48.740 C 106.234 46.014 112.202 45.171 112.484 45.082 Z " transform="matrix(0.4965725243091583, 0, 0, 0.4965725243091583, -1.55, -10.75)"/>
    <path id="ID0.5755036710761487" fill="#272525" d="M 100.939 53.756 C 97.644 53.122 89.622 51.198 89.622 51.198 C 90.600 46.612 90.273 37.991 96.510 39.462 C 102.747 40.933 100.734 49.080 100.939 53.756 Z " transform="matrix(0.4965725243091583, 0, 0, 0.4965725243091583, -1.55, -10.75)"/>
    <path id="ID0.034518200904130936" fill="#53CC56" d="M 97.998 51.873 C 96.421 51.665 94.373 51.386 92.624 50.800 C 92.582 48.174 92.795 42.299 95.925 43.094 C 99.057 43.891 97.992 51.497 97.998 51.873 Z " transform="matrix(0.4965725243091583, 0, 0, 0.4965725243091583, -1.55, -10.75)"/>
    <path id="ID0.7460745237767696" fill="#272525" d="M 87.447 50.144 C 84.189 50.957 76.105 52.593 76.105 52.593 C 75.204 47.990 72.378 39.718 77.017 38.716 C 83.281 37.363 85.430 45.958 87.447 50.144 Z " transform="matrix(0.4965725243091583, 0, 0, 0.4965725243091583, -1.55, -10.75)"/>
    <path id="ID0.45131714455783367" fill="#53CC56" d="M 84.021 49.667 C 82.499 50.144 80.519 50.755 78.693 50.959 C 77.627 48.578 75.521 43.121 78.693 42.525 C 81.863 41.929 83.870 49.328 84.021 49.667 Z " transform="matrix(0.4965725243091583, 0, 0, 0.4965725243091583, -1.55, -10.75)"/>
    <path id="ID0.03776734322309494" fill="#272525" d="M 62.256 65.825 C 62.330 67.489 58.564 75.296 58.564 75.296 C 49.554 72.623 44.908 62.202 55.737 63.713 C 58.237 64.062 60.076 64.305 62.256 65.825 Z " transform="matrix(0.4965725243091583, 0, 0, 0.4965725243091583, -1.55, -10.75)"/>
    <path id="ID0.6855689389631152" fill="#53CC56" d="M 60.973 67.148 L 58.787 72.561 C 56.314 71.759 51.300 70.380 52.307 67.163 C 53.314 63.947 58.074 66.375 60.973 67.148 Z " transform="matrix(0.4965725243091583, 0, 0, 0.4965725243091583, -1.55, -10.75)"/>
    <path id="ID0.809887517709285" fill="#272525" d="M 73.354 54.520 C 72.705 56.339 65.243 62.932 65.243 62.932 C 56.748 55.800 56.330 42.420 67.285 49.170 C 69.814 50.727 71.680 51.858 73.354 54.520 Z " transform="matrix(0.4965725243091583, 0, 0, 0.4965725243091583, -1.55, -10.75)"/>
    <path id="ID0.4033588501624763" fill="#53CC56" d="M 71.397 55.333 L 66.681 60.104 C 64.380 58.074 59.604 54.221 62.095 51.248 C 64.584 48.273 68.626 53.131 71.397 55.333 Z " transform="matrix(0.4965725243091583, 0, 0, 0.4965725243091583, -1.55, -10.75)"/>
    <path id="ID0.36602418310940266" fill="#272525" d="M 58.589 79.993 C 58.924 80.900 54.575 85.713 54.494 87.910 C 50.956 87.099 46.947 83.379 47.832 81 C 48.715 78.621 51.100 77.378 58.589 79.993 Z " transform="matrix(0.4965725243091583, 0, 0, 0.4965725243091583, -1.55, -10.75)"/>
    <path id="ID0.9107537101954222" fill="#53CC56" d="M 50.220 81.518 C 50.956 79.690 54.426 80.421 56.921 81.747 C 56.137 82.571 56.023 85.599 54.860 85.513 C 53.344 85.422 49.483 83.344 50.220 81.518 Z " transform="matrix(0.4965725243091583, 0, 0, 0.4965725243091583, -1.55, -10.75)"/>
    <path id="ID0.846719756256789" fill="#272525" d="M 47.091 84.257 C 44.544 84.879 42.665 89.899 42.904 94.669 C 42.904 94.669 47.384 93.538 49.312 93.422 C 49.925 91.093 49.638 83.634 47.091 84.257 Z " transform="matrix(0.4965725243091583, 0, 0, 0.4965725243091583, -1.55, -10.75)"/>
    <path id="ID0.12462463555857539" fill="#53CC56" d="M 44.854 93.382 C 45.582 93.084 46.954 92.541 48.194 92.391 C 48.133 90.112 48.615 86.688 46.946 86.721 C 45.277 86.754 44.364 90.534 44.854 93.382 Z " transform="matrix(0.4965725243091583, 0, 0, 0.4965725243091583, -1.55, -10.75)"/>
    <path id="ID0.0693201906979084" fill="#272525" d="M 37.732 91.818 C 36.808 91.954 33.274 86.467 31.233 85.890 C 32.787 82.490 37.177 79.265 39.208 80.695 C 41.239 82.128 41.869 84.822 37.732 91.818 Z " transform="matrix(0.4965725243091583, 0, 0, 0.4965725243091583, -1.55, -10.75)"/>
    <path id="ID0.9146529510617256" fill="#53CC56" d="M 38.187 82.999 C 39.733 84.156 38.268 87.507 36.464 89.734 C 35.867 88.755 33.057 87.959 33.397 86.799 C 33.824 85.286 36.639 81.844 38.187 82.999 Z " transform="matrix(0.4965725243091583, 0, 0, 0.4965725243091583, -1.55, -10.75)"/>
    <path id="ID0.5641578235663474" fill="#272525" d="M 29.439 79.600 C 28.600 79.723 25.395 75.269 23.543 74.751 C 24.454 71.415 28.936 68.324 30.777 69.608 C 32.620 70.893 33.190 73.314 29.439 79.600 Z " transform="matrix(0.4965725243091583, 0, 0, 0.4965725243091583, -1.55, -10.75)"/>
    <path id="ID0.45156762236729264" fill="#53CC56" d="M 29.671 71.354 C 31.074 72.394 29.352 75.855 28.289 77.727 C 27.748 76.846 25.198 76.132 25.508 75.091 C 25.894 73.731 28.267 70.316 29.671 71.354 Z " transform="matrix(0.4965725243091583, 0, 0, 0.4965725243091583, -1.55, -10.75)"/>
    <path id="ID0.18529955577105284" fill="#272525" d="M 19.724 62.120 C 17.108 62.082 16.462 68.741 14.787 71.970 C 14.787 71.970 18.113 72.079 20.012 72.452 C 21.148 70.345 22.340 62.157 19.724 62.120 Z " transform="matrix(0.4965725243091583, 0, 0, 0.4965725243091583, -1.55, -10.75)"/>
    <path id="ID0.4159434367902577" fill="#53CC56" d="M 16.579 71.291 C 17.355 71.184 17.927 71.003 19.166 71.170 C 19.639 68.942 20.903 65.742 19.276 65.354 C 17.648 64.967 18.056 68.573 16.579 71.291 Z " transform="matrix(0.4965725243091583, 0, 0, 0.4965725243091583, -1.55, -10.75)"/>
    <path id="ID0.40136285964399576" fill="#272525" d="M 4.894 65.227 C 2.839 66.910 6.366 72.507 7.020 76.111 C 7.020 76.111 9.671 74.022 11.373 73.069 C 10.979 70.688 6.949 63.545 4.894 65.227 Z " transform="matrix(0.4965725243091583, 0, 0, 0.4965725243091583, -1.55, -10.75)"/>
    <path id="ID0.7328564277850091" fill="#53CC56" d="M 8.002 74.411 C 8.541 73.820 8.875 73.305 9.939 72.625 C 8.957 70.584 8.002 67.269 6.503 68.033 C 5.004 68.798 7.505 71.334 8.002 74.411 Z " transform="matrix(0.4965725243091583, 0, 0, 0.4965725243091583, -1.55, -10.75)"/>
    <path id="ID0.5799427083693445" fill="#272525" d="M 134.079 50.858 C 136.090 52.880 142.109 52.247 141.146 56.572 C 139.661 63.238 130.875 60.508 126.814 58.680 C 123.470 72.051 137.618 84.224 127.925 96.707 C 135.855 98.982 138.074 106.800 137.547 113.034 C 140 114.890 142.276 117.168 143.500 120.107 C 138.990 124.099 132.166 122.900 126.813 122.011 C 126.462 122.697 126.356 123.847 126.608 124.491 C 128.492 126.447 131.139 128.241 131.850 130.718 C 125.216 133.292 117.391 132.914 110.647 130.990 C 112.815 124.656 115.340 116.350 113.332 109.630 C 104.321 112.692 94.796 113.075 85.716 109.970 L 84.736 110.923 C 88.117 112.578 91.626 115.767 92.786 119.564 C 95.609 119.988 99.051 121.470 100.900 123.984 C 95.140 131.361 85.351 134.437 76.556 132.011 C 77.052 128.058 75.945 124.199 74.200 120.720 C 72.544 122.504 70.582 123.954 68.573 125.277 C 69.026 128.066 67.461 132.351 67.461 132.351 C 67.302 133.363 65.661 132.967 65.105 132.829 C 58.605 131.193 54.481 123.933 53.654 117.454 C 54.945 116.105 60.857 116.238 63.404 111.741 C 62.443 111.205 61.092 109.273 60.192 107.912 C 55.120 113.014 47.892 117.566 40.860 116.385 C 36.939 115.725 32.952 114.546 28.780 109.954 C 24.173 104.882 22.099 83.678 16.510 81.725 C 13.383 80.630 9.564 86.584 8.434 89.905 C 6.976 90.723 5.464 87.400 4.965 86.300 C 0.885 77.290 10.551 69.030 18.773 70.790 C 30.407 73.281 32.629 92.045 43.314 92.830 C 47.256 93.121 52.716 89.900 54.308 86.098 C 55.120 84.157 55.520 81.682 56.021 79.620 C 58.102 71.068 59.525 65.316 65.891 59.021 C 81.187 43.895 94.040 46.066 110.978 57.864 C 112.558 58.965 113.525 60.210 114.904 61.810 C 113.695 53.942 105.607 40.867 114.904 35.008 C 120.220 31.657 125.845 30.192 132.050 29.497 C 152.055 27.261 150.059 47.477 134.079 50.858 Z " transform="matrix(0.4965725243091583, 0, 0, 0.4965725243091583, -1.55, -10.75)"/>
    <path id="ID0.5439048423431814" fill="#00E4FF" d="M 130.152 50.178 C 131.898 54.748 139.314 54.204 138.331 56.231 C 136.369 60.288 128.387 58.651 125.768 56.231 C 124.372 56.759 123.731 59.407 123.414 60.790 C 120.860 71.920 133.552 81.708 124.657 95.893 C 123.204 95.664 121.049 95.471 119.946 96.707 C 123.340 99.857 134.948 95.734 134.407 111.741 C 133.858 112.616 133.596 113.627 133.098 114.529 C 130.098 108.220 126.860 115.371 126.227 118.747 C 125.065 118.471 123.983 117.935 122.889 117.454 C 124.827 113.973 126.600 108.884 124.460 105.074 C 123.156 102.754 117.368 99.750 114.773 101.945 C 115.732 102.299 116.961 102.318 117.915 103.101 C 109.471 109.306 97.221 110.531 87.420 107.659 C 87.670 105.400 88.073 103.417 87.747 101.128 C 86.883 95.055 82.209 90.482 76.100 92.829 C 77.860 93.457 79.155 93.753 80.233 94.475 C 84.067 97.051 85.839 102.977 84.606 107.660 C 84.343 108.661 82.561 111.723 82.579 112.217 C 82.597 112.728 83.297 112.513 83.627 112.763 C 88.085 114.825 90.662 119.904 91.023 124.803 C 88.902 122.304 88.004 122.126 87.025 122.284 C 85.042 122.602 84.345 126.393 83.955 129.905 C 82.619 130.264 81.125 129.766 79.898 129.223 C 77.411 113.313 69.399 117.119 63.539 108.134 C 61.575 105.125 60.269 96.218 57.910 96.706 C 56.736 96.949 58.149 103.491 59.132 105.701 C 53.405 110.802 42.445 115.060 35.001 110.802 C 25.997 105.656 26.223 97.796 23.031 88.883 C 21.110 83.518 16.073 75.489 10.139 82.014 C 8.810 83.475 7.492 85.434 7.194 87.453 C 5.962 81.807 5.633 77.734 9.479 74.919 C 23.876 64.375 30.014 91.809 39.990 94.816 C 46.542 96.793 53.653 93.170 57.126 87.115 C 60.349 81.493 60.690 74.303 64.324 67.862 C 70.595 56.750 80.965 51.551 93.379 53.306 C 101.128 54.400 111.975 59.188 116.311 66.501 C 119.830 56.637 109.257 46.647 116.481 39.087 C 121.069 34.285 140.005 28.681 143.179 35.005 C 145.004 38.638 140.915 44.521 138.143 46.434 C 135.775 48.063 132.784 49.112 130.152 50.178 Z " transform="matrix(0.4965725243091583, 0, 0, 0.4965725243091583, -1.55, -10.75)"/>
    <path id="ID0.2767436234280467" fill="#00BCFF" d="M 124.327 121.400 C 124.497 122.767 124.159 124.068 123.913 125.601 C 121.287 121.224 117.943 126.806 117.392 129.359 C 116.539 129.548 115.741 129.228 115.037 128.748 C 116 122.105 117.367 115.021 116.017 108.341 C 117.747 107.307 119.588 106.471 121.187 105.210 C 125.400 110.729 118.570 118.147 118.962 118.952 C 119.630 120.327 123.042 120.354 124.327 121.400 Z " transform="matrix(0.4965725243091583, 0, 0, 0.4965725243091583, -1.55, -10.75)"/>
    <path id="ID0.7503084768541157" fill="#00BCFF" d="M 72.173 118.136 C 70.405 120.313 67.651 123.356 64.772 123.901 C 65.099 122.949 64.807 121.087 63.759 120.677 C 61.011 119.589 59.607 121.946 57.252 122.829 C 56.597 121.945 55.942 120.788 55.550 119.564 C 59.345 119.429 63.272 117.252 65.300 113.579 C 67.854 114.395 69.882 116.570 72.173 118.136 Z " transform="matrix(0.4965725243091583, 0, 0, 0.4965725243091583, -1.55, -10.75)"/>
    <path id="ID0.522404566872865" fill="#CCFF00" d="M 131.723 115.823 C 132.372 117.337 131.723 119.564 131.723 119.564 L 128.911 119.292 C 129.236 117.864 129.825 111.402 131.723 115.823 Z " transform="matrix(0.4965725243091583, 0, 0, 0.4965725243091583, -1.55, -10.75)"/>
    <path id="ID0.8344360045157373" fill="#CCFF00" d="M 138.922 118.611 C 137.875 119.359 136.305 119.904 134.863 119.429 C 134.548 117.693 134.601 116.160 135.191 114.869 C 136.631 115.891 137.811 117.318 138.922 118.611 Z " transform="matrix(0.4965725243091583, 0, 0, 0.4965725243091583, -1.55, -10.75)"/>
    <path id="ID0.37612275080755353" fill="#CCFF00" d="M 62.945 122.829 C 63.544 123.814 61.112 125.550 59.804 126.299 L 58.495 124.463 C 59.805 123.441 62.346 121.846 62.945 122.829 Z " transform="matrix(0.4965725243091583, 0, 0, 0.4965725243091583, -1.55, -10.75)"/>
    <path id="ID0.28769717970862985" fill="#CCFF00" d="M 97.982 125.005 C 96.935 125.957 95.208 127.389 93.834 127.934 C 93.180 126.571 92.926 123.272 92.665 121.774 C 94.105 122.521 96.430 123.389 97.982 125.005 Z " transform="matrix(0.4965725243091583, 0, 0, 0.4965725243091583, -1.55, -10.75)"/>
    <path id="ID0.277075809892267" fill="#CCFF00" d="M 91.348 128.748 C 89.909 129.564 88.009 129.838 86.176 129.904 C 86.112 127.796 86.020 124.564 87.420 124.191 C 88.822 123.814 89.973 127.389 91.348 128.748 Z " transform="matrix(0.4965725243091583, 0, 0, 0.4965725243091583, -1.55, -10.75)"/>
    <path id="ID0.5312819685786963" fill="#CCFF00" d="M 122.759 130.039 C 121.378 130.191 120.479 130.021 119.487 129.700 C 119.382 128.702 122.777 121.283 122.759 130.039 Z " transform="matrix(0.4965725243091583, 0, 0, 0.4965725243091583, -1.55, -10.75)"/>
    <path id="ID0.339989235624671" fill="#CCFF00" d="M 65.760 126.299 C 65.825 127.319 65.694 129.020 65.302 130.177 C 64.189 129.770 62.815 129.225 62.292 128.069 C 63.469 127.523 64.647 126.979 65.760 126.299 Z " transform="matrix(0.4965725243091583, 0, 0, 0.4965725243091583, -1.55, -10.75)"/>
    <path id="ID0.2953817956149578" fill="#CCFF00" d="M 127.798 129.359 C 127.207 130.312 126.203 130.021 125.244 130.039 C 125.058 128.662 124.982 127.661 125.572 126.773 C 126.617 127.252 127.268 128.236 127.798 129.359 Z " transform="matrix(0.4965725243091583, 0, 0, 0.4965725243091583, -1.55, -10.75)"/>
    <path id="ID0.7113950974307954" fill="#272525" d="M 133.462 33.197 C 137.247 30.676 142.418 36.203 139.371 39.779 C 134.874 45.055 127.309 37.296 133.462 33.197 Z " transform="matrix(0.4965725243091583, 0, 0, 0.4965725243091583, -1.55, -10.75)"/>
    <path id="ID0.10510719940066338" fill="#FFFFFF" d="M 135.673 39.807 C 135.077 39.869 134.615 39.746 134.134 39.445 C 132.116 38.177 133.047 35.402 135.180 34.950 C 138.982 34.142 139.482 39.416 135.673 39.807 Z " transform="matrix(0.4965725243091583, 0, 0, 0.4965725243091583, -1.55, -10.75)"/>
    <path id="ID0.4782689940184355" fill="#272525" d="M 137.010 35.957 C 137.384 35.957 137.722 36.115 137.967 36.370 C 138.212 36.625 138.364 36.977 138.364 37.366 C 138.364 37.755 138.212 38.107 137.967 38.362 C 137.722 38.617 137.384 38.775 137.010 38.775 C 136.636 38.775 136.298 38.617 136.053 38.362 C 135.808 38.107 135.656 37.755 135.656 37.366 C 135.656 36.977 135.808 36.625 136.053 36.370 C 136.298 36.115 136.636 35.957 137.010 35.957 Z " transform="matrix(0.4965725243091583, 0, 0, 0.4965725243091583, -1.55, -10.75)"/>
    <path id="ID0.03650373034179211" fill="#272525" d="M 124.803 35.014 C 129.391 31.958 135.659 38.659 131.966 42.994 C 126.516 49.388 117.343 39.982 124.803 35.014 Z " transform="matrix(0.4965725243091583, 0, 0, 0.4965725243091583, -1.55, -10.75)"/>
    <path id="ID0.9510143832303584" fill="#FFFFFF" d="M 127.480 43.026 C 126.758 43.100 126.202 42.951 125.618 42.586 C 123.172 41.048 124.301 37.687 126.885 37.138 C 131.493 36.160 132.102 42.552 127.480 43.026 Z " transform="matrix(0.4965725243091583, 0, 0, 0.4965725243091583, -1.55, -10.75)"/>
    <path id="ID0.38995282258838415" fill="#272525" d="M 129.104 38.360 C 129.557 38.360 129.968 38.551 130.265 38.860 C 130.562 39.169 130.746 39.596 130.746 40.067 C 130.746 40.538 130.562 40.965 130.265 41.274 C 129.968 41.583 129.557 41.774 129.104 41.774 C 128.651 41.774 128.240 41.583 127.943 41.274 C 127.646 40.965 127.462 40.538 127.462 40.067 C 127.462 39.596 127.646 39.169 127.943 38.860 C 128.240 38.551 128.651 38.360 129.104 38.360 Z " transform="matrix(0.4965725243091583, 0, 0, 0.4965725243091583, -1.55, -10.75)"/>
  </g>
</svg>